<?xml version="1.0" encoding="UTF-8"?>
<!DOCTYPE svg PUBLIC "-//W3C//DTD SVG 1.1//EN" "http://www.w3.org/Graphics/SVG/1.1/DTD/svg11.dtd">
<!-- Creator: CorelDRAW 2018 (64-Bit) -->
<svg xmlns="http://www.w3.org/2000/svg" xml:space="preserve" width="140mm" height="30mm" version="1.1" style="shape-rendering:geometricPrecision; text-rendering:geometricPrecision; image-rendering:optimizeQuality; fill-rule:evenodd; clip-rule:evenodd"
viewBox="0 0 14000 3000"
 xmlns:xlink="http://www.w3.org/1999/xlink">
 <defs>
  <style type="text/css">
   <![CDATA[
    .fil0 {fill:#5A451C}
   ]]>
  </style>
 </defs>
 <g id="Слой_x0020_1">
  <metadata id="CorelCorpID_0Corel-Layer"/>
  <path class="fil0" d="M6121.75 1997.24l0 -53.76 129.76 0c27.19,0 50.36,-10.81 69.51,-32.44 19.16,-21.63 28.74,-47.89 28.74,-78.78l0 -420.8 -608.03 0 0 420.8c0,30.89 9.58,57.15 28.74,78.78 19.15,21.63 42.94,32.44 71.37,32.44l129.76 0 0 53.76 -613.59 0 0 -53.76 129.76 0c27.19,0 50.67,-10.81 70.44,-32.44 19.78,-21.63 29.66,-47.89 29.66,-78.78l0 -852.72c0,-29.66 -9.88,-55.3 -29.66,-76.93 -19.77,-21.62 -43.25,-32.44 -70.44,-32.44l-113.07 0 0 -53.76 580.21 0 0 53.76 -113.07 0c-28.43,0 -52.22,10.82 -71.37,32.44 -19.16,21.63 -28.74,47.27 -28.74,76.93l0 359.63 608.03 0 0 -359.63c0,-29.66 -9.58,-55.3 -28.74,-76.93 -19.15,-21.62 -42.32,-32.44 -69.51,-32.44l-114.93 0 0 -53.76 580.22 0 0 53.76 -114.94 0c-27.18,0 -50.35,10.82 -69.51,32.44 -19.16,21.63 -28.73,47.27 -28.73,76.93l0 852.72c0,30.89 9.57,57.15 28.73,78.78 19.16,21.63 42.33,32.44 69.51,32.44l131.62 0 0 53.76 -611.73 0zm1077.01 -166.84l0 1.86c0,30.89 9.58,57.15 28.74,78.78 19.15,21.63 42.94,32.44 71.37,32.44l129.76 0 0 53.76 -613.59 0 0 -53.76 129.76 0c27.19,0 50.67,-10.81 70.44,-32.44 19.78,-21.63 29.66,-47.89 29.66,-78.78l0 -852.72c0,-29.66 -9.88,-55.3 -29.66,-76.93 -19.77,-21.62 -43.25,-32.44 -70.44,-32.44l-113.07 0 0 -53.76 580.21 0 0 53.76 -113.07 0c-28.43,0 -52.22,10.82 -71.37,32.44 -19.16,21.63 -28.74,47.27 -28.74,76.93l0 739.64 608.03 -734.08 0 -5.56c0,-29.66 -9.58,-55.3 -28.74,-76.93 -19.15,-21.62 -42.32,-32.44 -69.51,-32.44l-114.93 0 0 -53.76 580.22 0 0 53.76 -114.94 0c-27.18,0 -50.35,10.82 -69.51,32.44 -19.16,21.63 -28.73,47.27 -28.73,76.93l0 852.72c0,30.89 9.57,57.15 28.73,78.78 19.16,21.63 42.33,32.44 69.51,32.44l131.62 0 0 53.76 -611.73 0 0 -53.76 129.76 0c27.19,0 50.36,-10.81 69.51,-32.44 19.16,-21.63 28.74,-47.89 28.74,-78.78l-1.86 -732.23 -606.17 730.37zm1888.95 166.84l0 -53.76 133.47 0c12.36,0 24.1,-3.4 35.22,-10.19 11.13,-6.8 16.69,-18.23 16.69,-34.3 0,-16.06 -5.56,-32.75 -16.69,-50.05l-368.89 -513.48 -231.72 222.45 0 274.35c0,30.89 9.58,57.15 28.74,78.78 19.15,21.63 42.94,32.44 71.37,32.44l129.76 0 0 53.76 -613.59 0 0 -53.76 129.76 0c27.19,0 50.67,-10.81 70.44,-32.44 19.78,-21.63 29.66,-47.89 29.66,-78.78l0 -852.72c0,-29.66 -9.88,-55.3 -29.66,-76.93 -19.77,-21.62 -43.25,-32.44 -70.44,-32.44l-113.07 0 0 -53.76 580.21 0 0 53.76 -113.07 0c-28.43,0 -52.22,10.82 -71.37,32.44 -19.16,21.63 -28.74,47.27 -28.74,76.93l0 480.12 565.39 -545c25.95,-24.71 54.38,-47.27 85.27,-67.66 30.9,-20.39 64.27,-30.59 100.1,-30.59 34.61,0 65.5,9.27 92.69,27.81 27.19,18.54 40.78,48.81 40.78,90.83 0,23.48 -7.1,44.49 -21.31,63.03 -14.22,18.54 -31.83,27.81 -52.84,27.81 -21,0 -38.62,-8.35 -52.83,-25.03 -14.21,-16.68 -21.32,-36.15 -21.32,-58.39 0,-18.54 5.57,-36.46 16.69,-53.76 -30.9,3.71 -58.7,14.52 -83.42,32.44 -24.72,17.92 -48.81,38.62 -72.29,62.1l-257.67 248.4 420.79 583.92c23.48,32.14 53.14,61.49 88.98,88.06 35.84,26.57 73.53,39.85 113.08,39.85l105.66 0 0 53.76 -635.83 0zm1879.68 -595.05c0,87.75 -15.14,170.24 -45.42,247.48 -30.27,77.23 -71.36,144.9 -123.27,202.98 -51.9,58.08 -112.46,104.12 -181.66,138.1 -69.21,33.99 -143.36,50.98 -222.45,50.98 -79.09,0 -153.24,-16.99 -222.45,-50.98 -69.21,-33.98 -129.76,-80.02 -181.66,-138.1 -51.91,-58.08 -92.69,-125.75 -122.35,-202.98 -29.66,-77.24 -44.49,-159.73 -44.49,-247.48 0,-86.5 14.83,-168.69 44.49,-246.54 29.66,-77.86 70.44,-145.52 122.35,-202.99 51.9,-57.46 112.45,-103.19 181.66,-137.17 69.21,-33.99 143.36,-50.98 222.45,-50.98 79.09,0 153.24,16.99 222.45,50.98 69.2,33.98 129.76,79.71 181.66,137.17 51.91,57.47 93,125.13 123.27,202.99 30.28,77.85 45.42,160.04 45.42,246.54zm-194.64 0.93c0,-65.5 -6.49,-132.54 -19.47,-200.51 -12.97,-67.97 -34.29,-130.07 -63.95,-185.68 -29.66,-55.62 -68.59,-101.65 -116.78,-137.49 -48.2,-35.84 -107.52,-53.76 -177.96,-53.76 -70.44,0 -129.76,17.92 -177.96,53.76 -48.2,35.84 -86.82,81.87 -115.86,137.49 -29.04,55.61 -50.05,117.71 -63.02,185.68 -12.98,67.97 -19.47,135.01 -19.47,200.51 0,65.5 6.49,132.85 19.47,201.44 12.97,68.59 33.98,131 63.02,186.61 29.04,55.61 67.66,101.33 115.86,136.56 48.2,35.22 107.52,52.83 177.96,52.83 70.44,0 129.76,-17.61 177.96,-52.83 48.19,-35.23 87.12,-80.95 116.78,-136.56 29.66,-55.61 50.98,-118.02 63.95,-186.61 12.98,-68.59 19.47,-135.94 19.47,-201.44zm417.09 -532.95l0 -53.76 1123.36 0 0 53.76 -114.93 0c-27.19,0 -50.36,10.82 -69.52,32.44 -19.15,21.63 -28.73,47.27 -28.73,76.93l0 852.72c0,30.89 9.27,57.15 27.81,78.78 18.53,21.63 42.01,32.44 70.44,32.44l129.76 0 0 53.76 -613.59 0 0 -53.76 129.76 0c27.19,0 50.67,-10.81 70.45,-32.44 19.77,-21.63 29.66,-47.89 29.66,-78.78l0 -852.72c0,-29.66 -9.58,-55.3 -28.74,-76.93 -19.15,-21.62 -42.32,-32.44 -69.51,-32.44l-124.2 0c-63.03,11.12 -116.17,32.13 -159.42,63.03 -43.26,30.89 -78.79,68.59 -106.59,113.08 -27.81,44.49 -48.82,94.23 -63.03,149.22 -14.21,55 -24.41,111.53 -30.58,169.62 -6.18,58.08 -9.58,116.17 -10.2,174.25 -0.62,58.08 -0.93,112.46 -0.93,163.13 0,32.13 -3.4,65.5 -10.19,100.1 -6.8,34.6 -17.61,66.42 -32.44,95.47 -14.83,29.04 -34.91,53.44 -60.25,73.22 -25.33,19.77 -56.54,30.28 -93.61,31.51 -28.43,1.24 -53.14,-8.03 -74.15,-27.8 -21.01,-19.78 -31.52,-44.49 -31.52,-74.15 0,-25.96 7.73,-47.89 23.18,-65.81 15.44,-17.92 33.67,-26.88 54.68,-26.88 21.01,0 37.38,7.41 49.13,22.24 11.74,14.83 17.61,31.52 17.61,50.06 0,25.95 -9.27,48.19 -27.81,66.73 23.48,-3.71 43.87,-13.9 61.17,-30.59 17.3,-16.68 30.9,-36.45 40.78,-59.32 9.89,-22.86 17.31,-46.96 22.25,-72.29 4.94,-25.34 7.41,-48.51 7.41,-69.52 -24.71,0 -46.34,-5.25 -64.88,-15.75 -18.53,-10.51 -34.29,-24.1 -47.27,-40.79 -12.97,-16.68 -22.86,-35.22 -29.66,-55.61 -6.79,-20.39 -10.19,-41.09 -10.19,-62.1 0,-63.02 9.27,-127.9 27.8,-194.64 18.54,-66.73 45.42,-130.69 80.64,-191.86 35.22,-61.17 78.48,-116.48 129.76,-165.91 51.29,-49.43 110.3,-88.98 177.03,-118.64l-370.74 0zm2419.12 800.81c0,60.56 -12.98,111.85 -38.93,153.86 -25.96,42.02 -59.01,76.01 -99.18,101.96 -40.16,25.95 -84.65,44.49 -133.47,55.61 -48.81,11.12 -96.08,16.68 -141.81,16.68l-769.29 0 0 -53.75 113.07 0c27.19,0 50.67,-10.82 70.44,-32.44 19.78,-21.63 29.66,-47.27 29.66,-76.93l0 -852.72c0,-30.9 -9.88,-57.16 -29.66,-78.78 -19.77,-21.63 -43.25,-32.44 -70.44,-32.44l-129.76 0 0 -53.76 613.59 0 0 53.76 -129.76 0c-28.43,0 -52.22,10.81 -71.37,32.44 -19.16,21.62 -28.74,47.88 -28.74,78.78l0 852.72c0,29.66 9.58,55.3 28.74,76.93 19.15,21.62 42.94,32.44 71.37,32.44l239.13 0c34.6,0 69.82,-6.49 105.66,-19.47 35.84,-12.97 68.28,-31.51 97.32,-55.61 29.04,-24.1 52.83,-53.45 71.37,-88.05 18.54,-34.61 27.8,-72.92 27.8,-114.93 0,-46.97 -14.52,-87.13 -43.56,-120.5 -29.04,-33.36 -64.57,-61.79 -106.59,-85.27 -42.02,-23.48 -85.58,-42.63 -130.69,-57.46 -45.1,-14.83 -83.72,-27.19 -115.85,-37.08 -21.01,-6.18 -41.4,-12.97 -61.18,-20.39 -19.77,-7.41 -37.69,-17.3 -53.75,-29.66 -16.07,-12.36 -29.05,-27.8 -38.93,-46.34 -9.89,-18.54 -14.83,-42.02 -14.83,-70.44 0,-24.72 7.41,-46.97 22.24,-66.74 14.83,-19.77 33.99,-29.66 57.47,-29.66 21.01,0 39.23,8.34 54.68,25.03 15.45,16.68 23.17,36.76 23.17,60.24 0,23.48 -7.41,43.26 -22.24,59.32 -14.83,16.07 -32.75,24.72 -53.76,25.96 24.72,18.53 53.14,30.27 85.27,35.22 32.13,4.94 62.41,9.88 90.84,14.83 45.72,7.41 96.7,16.68 152.93,27.8 56.23,11.12 108.75,29.04 157.57,53.76 48.81,24.72 89.59,58.08 122.34,100.1 32.75,42.02 49.13,97.01 49.13,164.98zm-11618.18 -1042.32l432.25 -624.08 432.28 624.08c309.03,-278.74 696.33,-441.64 1114.86,-441.64 17.34,0 34.68,0.5 52.01,1.06 93.13,2.97 185.93,13.99 277.19,32.84 92.08,19.02 182.44,46.04 270.02,80.24l67.29 26.27 -918.41 2552.97 -15.36 0.1c-853.24,5.25 -1706.5,5.25 -2559.74,0l-15.37 -0.1 -5.19 -14.45c-301.91,-839.49 -603.86,-1678.95 -905.95,-2518.37l-7.25 -20.15 67.28 -26.27c87.58,-34.21 177.95,-61.22 270.03,-80.24 91.25,-18.85 184.06,-29.87 277.19,-32.84 17.33,-0.56 34.67,-1.06 52.01,-1.06 418.54,0 805.82,162.88 1114.86,441.64zm761.19 100.56l-328.94 -474.94 -328.93 474.92c19.96,20.91 39.46,42.26 58.48,64.03 104.91,120.13 195.31,252.76 270.47,393.39 75.15,-140.63 165.55,-273.26 270.46,-393.39 19.02,-21.76 38.51,-43.1 58.46,-64.01zm-578.09 2007.06c-7.71,-50.15 -13.97,-100.54 -18.74,-151.06 -7.77,-82.21 -11.78,-164.79 -11.78,-247.37 0,-22.26 0.49,-44.52 1.05,-66.77 8.04,-317.41 73.89,-633.24 201.15,-924.5 -77.36,-161.98 -175.58,-314.3 -293.73,-449.56 -300.71,-344.29 -714.21,-558.9 -1175.91,-558.9 -16.01,0 -32.02,0.03 -48.03,0.54 -85.74,2.74 -171.17,12.91 -255.18,30.28 -61.39,12.69 -121.98,29.17 -181.36,49.25l831.76 2312.21 950.77 5.88zm249.17 -1205.78c-87.66,238.24 -133.52,490.94 -139.94,744.59 -0.53,20.92 -0.58,41.84 -0.58,62.76 0,77.43 3.5,154.87 10.77,231.95 5.29,56 12.55,111.8 21.71,167.3l216.07 0c9.16,-55.5 16.42,-111.3 21.71,-167.3 7.29,-77.08 10.78,-154.52 10.78,-231.95 0,-20.92 -0.06,-41.84 -0.59,-62.76 -6.4,-253.65 -52.27,-506.36 -139.93,-744.59zm77.47 -183.92c127.26,291.26 193.12,607.09 201.16,924.5 0.56,22.25 1.04,44.51 1.04,66.77 0,82.58 -4,165.16 -11.77,247.37 -4.77,50.52 -11.02,100.91 -18.73,151.06l950.75 -5.88 831.78 -2312.21c-59.39,-20.07 -119.98,-36.56 -181.37,-49.25 -84.01,-17.37 -169.45,-27.54 -255.18,-30.28 -16.01,-0.51 -32.02,-0.54 -48.03,-0.54 -461.71,0 -875.2,214.6 -1175.91,558.9 -118.14,135.26 -216.39,287.58 -293.74,449.56zm4610.25 1499.41l41 0 0 -187.48 103.31 185.84 1.09 0 103.31 -185.84 0 187.48 40.99 0 0 -262.37 -45.37 0 -99.48 178.74 -99.48 -178.74 -45.37 0 0 262.37zm404.57 0l163.98 0 0 -35.53 -117.52 0 0 -84.72 95.66 0 0 -32.8 -95.66 0 0 -73.79 117.52 0 0 -35.53 -163.98 0 0 262.37zm243.33 -32.8l0 90.74 32.8 0 0 -57.94 191.31 0 0 57.94 32.79 0 0 -90.74 -32.79 0 0 -229.57 -161.25 0 0 163.98c0,34.16 -16.94,62.86 -42.09,65.59l-20.77 0zm177.65 0l-92.93 0c15.86,-16.39 24.6,-39.72 24.6,-65.59l0 -131.18 68.33 0 0 196.77zm371.78 32.8l0 -262.37 -41 0 -112.05 180.2 0 -180.2 -43.73 0 0 262.37 41 0 112.05 -176.92 0 176.92 43.73 0zm114.87 0l204.98 0 0 57.94 32.79 0 0 -90.74 -43.72 0 0 -229.57 -46.47 0 0 229.57 -101.12 0 0 -229.57 -46.46 0 0 262.37zm530.3 0l0 -262.37 -41 0 -112.05 180.2 0 -180.2 -43.73 0 0 262.37 41 0 112.05 -176.92 0 176.92 43.73 0zm114.87 0l46.46 0 0 -120.25 103.86 0 0 120.25 46.46 0 0 -262.37 -46.46 0 0 109.32 -103.86 0 0 -109.32 -46.46 0 0 262.37zm481.1 -4.19l0 -47.01c-13.21,9.39 -33.71,15.67 -54.66,15.67 -47.56,0 -79.26,-38.26 -79.26,-95.65 0,-57.4 33.89,-95.66 84.72,-95.66 20.96,0 35.99,6.29 49.2,15.67l0 -47.01c-15.67,-3.73 -35.8,-6.92 -54.66,-6.92 -77.07,0 -128.45,53.57 -128.45,133.92 0,80.35 51.38,133.91 128.45,133.91 18.86,0 38.99,-3.19 54.66,-6.92zm156.87 -129.64l90.65 133.83 64.13 0 -110.96 -134.01 101.67 -128.36 -57.76 0 -87.73 128.54zm-52.93 133.83l46.46 0 0 -262.37 -46.46 0 0 262.37zm497.5 0l0 -262.37 -41 0 -112.05 180.2 0 -180.2 -43.73 0 0 262.37 41 0 112.05 -176.92 0 176.92 43.73 0zm213.26 -308.83c-18.04,0 -30.06,-17.49 -30.06,-43.73l-27.33 0c0,36.08 22.96,60.13 57.39,60.13 34.44,0 57.39,-24.05 57.39,-60.13l-27.33 0c0,26.24 -12.02,43.73 -30.06,43.73zm98.39 308.83l0 -262.37 -41 0 -112.05 180.29 0 -180.29 -43.73 0 0 262.37 41 0 112.05 -177.01 0 177.01 43.73 0zm213.26 0l204.98 0 0 57.94 32.79 0 0 -90.74 -43.72 0 0 -229.57 -46.47 0 0 229.57 -101.12 0 0 -229.57 -46.46 0 0 262.37zm333.52 0l163.98 0 0 -35.53 -117.52 0 0 -84.72 95.66 0 0 -32.8 -95.66 0 0 -73.79 117.52 0 0 -35.53 -163.98 0 0 262.37zm262.46 0l46.46 0 0 -120.25 103.86 0 0 120.25 46.46 0 0 -262.37 -46.46 0 0 109.32 -103.86 0 0 -109.32 -46.46 0 0 262.37zm292.52 -262.37l0 35.53 76.53 0 0 226.84 46.46 0 0 -226.84 76.52 0 0 -35.53 -199.51 0zm295.25 262.37l46.46 0 0 -92.92 32.8 0c65.59,0 109.32,-34.98 109.32,-87.46 0,-49.19 -44.82,-81.99 -112.05,-81.99l-76.53 0 0 262.37zm46.46 -125.72l0 -103.85 32.25 0c37.45,0 62.32,19.68 62.32,49.19 0,32.8 -24.87,54.66 -62.32,54.66l-32.25 0z"/>
 </g>
</svg>
